<?xml version="1.0" encoding="UTF-8"?>
<svg version="1.1" xmlns="http://www.w3.org/2000/svg" width="512" height="512">
<path d="M0 0 C1.30365551 1.08998583 2.59459989 2.19528814 3.875 3.3125 C4.84308594 4.08464844 5.81117188 4.85679688 6.80859375 5.65234375 C20.33468986 16.94315926 29.29424328 36.09660534 31.09815598 53.46053314 C31.41715167 58.84540371 31.33632714 64.2299551 31.265625 69.62109375 C31.25814177 71.32600736 31.25245872 73.03092972 31.24847412 74.7358551 C31.23338121 79.16973663 31.19424596 83.60307329 31.1496582 88.03674316 C31.1083474 92.58236323 31.09038756 97.12807346 31.0703125 101.67382812 C31.02773128 110.55362158 30.95968494 119.43301505 30.875 128.3125 C31.94347168 128.29155273 33.01194336 128.27060547 34.11279297 128.24902344 C38.11965251 128.17600679 42.12645465 128.13047888 46.13378906 128.09277344 C47.86012702 128.07279715 49.58639853 128.04560628 51.3125 128.01074219 C63.88522395 127.7633622 73.85513989 128.36740512 84.05859375 136.55078125 C90.70239345 142.99455257 94.98022812 151.40540627 95.16796875 160.6875 C95.14829854 162.5627264 95.11292166 164.4378484 95.0625 166.3125 C95.04896484 167.27800781 95.03542969 168.24351562 95.02148438 169.23828125 C94.98645458 171.59695425 94.93734084 173.95441771 94.875 176.3125 C97.185 175.9825 99.495 175.6525 101.875 175.3125 C102.14159424 174.434729 102.40818848 173.55695801 102.68286133 172.65258789 C103.83184565 169.43340819 105.1938941 166.79489058 106.94921875 163.87109375 C107.53380859 162.87529297 108.11839844 161.87949219 108.72070312 160.85351562 C109.95334125 158.77646156 111.19299197 156.7035539 112.43945312 154.63476562 C113.02017578 153.64025391 113.60089844 152.64574219 114.19921875 151.62109375 C114.73635498 150.72189209 115.27349121 149.82269043 115.8269043 148.89624023 C117.06625491 145.841023 116.85436789 144.41498461 115.875 141.3125 C114.9677446 139.21179934 114.9677446 139.21179934 113.875 137.25 C109.27808291 128.7152826 109.6924221 117.35362086 111.5234375 108 C115.21784427 96.88520357 123.12355558 88.60053309 133.26171875 82.9921875 C143.0675308 78.69745205 155.78751215 78.57732462 165.9375 81.875 C176.48547663 86.49478762 184.69271238 94.70202337 189.3125 105.25 C192.61017538 115.39998785 192.49004795 128.1199692 188.1953125 137.92578125 C182.43984906 148.32988824 174.2499185 155.77617963 162.91943359 159.57324219 C159.76517574 160.33916783 157.18025519 160.31154175 153.94921875 160.23046875 C150.19363131 160.51163882 148.48718028 160.70582584 145.78491211 163.38378906 C143.95981211 166.26424021 142.45514065 169.16639697 141 172.25 C139.96203894 174.28051133 138.92298402 176.31046389 137.8828125 178.33984375 C137.14224609 179.83475342 137.14224609 179.83475342 136.38671875 181.35986328 C129.51258254 194.78618811 122.52052021 203.43065993 107.875 208.3125 C103.585 208.3125 99.295 208.3125 94.875 208.3125 C94.875 218.8725 94.875 229.4325 94.875 240.3125 C101.145 240.3125 107.415 240.3125 113.875 240.3125 C114.535 238.3325 115.195 236.3525 115.875 234.3125 C122.41281518 225.06938199 130.83237413 218.87143835 141.875 216.3125 C154.24473059 214.99874528 165.32213519 216.0791761 175.625 223.5 C183.7102318 230.3124225 189.93804017 238.61743076 191.09814453 249.38330078 C191.99371049 262.29461062 190.42771344 273.06296854 181.84765625 283.24609375 C173.71607107 291.7641305 165.06697507 296.31499528 153.23974609 296.78320312 C140.75834179 296.93783543 131.05457912 294.14698216 121.875 285.3125 C118.13302454 281.14849723 115.24627798 277.79761191 113.875 272.3125 C107.605 272.3125 101.335 272.3125 94.875 272.3125 C94.875 282.8725 94.875 293.4325 94.875 304.3125 C99.165 304.3125 103.455 304.3125 107.875 304.3125 C120.4134612 308.04418488 127.35440252 314.78203282 133.68945312 326.06884766 C135.10337385 328.74469846 136.39790478 331.46874312 137.703125 334.19921875 C142.21074552 344.61293245 142.21074552 344.61293245 149.86474609 352.46044922 C153.30919978 353.46388698 156.5776126 353.47912101 160.140625 353.375 C168.46973531 353.23560066 174.97930818 358.5801475 180.83203125 364.0703125 C189.68600765 373.78767857 191.47427202 384.19352328 191.18359375 396.85546875 C190.63135976 407.75120578 185.56676426 415.87896323 177.80859375 423.28515625 C167.62546854 431.86521344 156.85711062 433.43121049 143.94580078 432.53564453 C133.17993076 431.37554017 124.8749225 425.1477318 118.0625 417.0625 C110.64765894 406.7679416 109.43003124 395.67533036 110.875 383.3125 C112.12427069 378.0877464 113.90084332 373.77373501 116.875 369.3125 C116.55374084 365.11403602 114.79326582 362.03154827 112.71484375 358.42578125 C111.7722168 356.7715918 111.7722168 356.7715918 110.81054688 355.08398438 C110.15119141 353.94251953 109.49183594 352.80105469 108.8125 351.625 C107.50388074 349.35316618 106.20182867 347.07788484 104.90234375 344.80078125 C104.32218506 343.79571533 103.74202637 342.79064941 103.14428711 341.75512695 C101.875 339.3125 101.875 339.3125 101.875 337.3125 C99.565 336.9825 97.255 336.6525 94.875 336.3125 C94.89594727 336.89628418 94.91689453 337.48006836 94.93847656 338.08154297 C95.61494245 359.76698414 95.61494245 359.76698414 90.875 367.3125 C90.45089844 368.02277344 90.02679688 368.73304688 89.58984375 369.46484375 C84.44195364 377.16516962 76.71698679 381.81691124 67.875 384.3125 C64.60916651 384.71667431 61.38449321 384.72262516 58.09671021 384.70018005 C57.14137921 384.70556559 56.18604822 384.71095113 55.2017678 384.71649987 C52.01605216 384.73075209 48.83075364 384.72368235 45.64501953 384.71655273 C43.35467191 384.72225774 41.06432712 384.7292225 38.77398682 384.73735046 C32.56320233 384.75528303 26.35255913 384.75411317 20.14175653 384.74840808 C14.95292199 384.7453162 9.76411457 384.75140873 4.57528389 384.75744683 C-8.3677557 384.77229352 -21.31070692 384.76867832 -34.25374497 384.75658352 C-45.47890062 384.74665398 -56.70389137 384.75958896 -67.92902158 384.78351771 C-79.47129253 384.80793601 -91.01346802 384.81711055 -102.55576622 384.81086498 C-109.02935444 384.80749653 -115.50280645 384.80990327 -121.97637558 384.82711601 C-128.0651368 384.84259915 -134.15358359 384.83861399 -140.24233246 384.81981087 C-142.47314265 384.81612875 -144.70397622 384.81922239 -146.93476486 384.82969666 C-149.98778443 384.84293382 -153.03976722 384.83133428 -156.09274292 384.81370544 C-156.96863945 384.82331045 -157.84453598 384.83291546 -158.74697483 384.84281152 C-168.3683694 384.7290564 -177.19500772 381.03384735 -184.125 374.3125 C-191.28868482 365.55688522 -193.61165149 357.43479887 -193.3125 346.3125 C-193.29219727 344.86423828 -193.29219727 344.86423828 -193.27148438 343.38671875 C-193.23645458 341.02804575 -193.18734084 338.67058229 -193.125 336.3125 C-195.435 336.6425 -197.745 336.9725 -200.125 337.3125 C-200.39159424 338.190271 -200.65818848 339.06804199 -200.93286133 339.97241211 C-202.08184565 343.19159181 -203.4438941 345.83010942 -205.19921875 348.75390625 C-205.78380859 349.74970703 -206.36839844 350.74550781 -206.97070312 351.77148438 C-208.20334125 353.84853844 -209.44299197 355.9214461 -210.68945312 357.99023438 C-211.56053711 359.48200195 -211.56053711 359.48200195 -212.44921875 361.00390625 C-212.98635498 361.90310791 -213.52349121 362.80230957 -214.0769043 363.72875977 C-215.31625491 366.783977 -215.10436789 368.21001539 -214.125 371.3125 C-213.2177446 373.41320066 -213.2177446 373.41320066 -212.125 375.375 C-207.52808291 383.9097174 -207.9424221 395.27137914 -209.7734375 404.625 C-213.46784427 415.73979643 -221.37355558 424.02446691 -231.51171875 429.6328125 C-241.3175308 433.92754795 -254.03751215 434.04767538 -264.1875 430.75 C-274.73547663 426.13021238 -282.94271238 417.92297663 -287.5625 407.375 C-290.86017538 397.22501215 -290.74004795 384.5050308 -286.4453125 374.69921875 C-280.68984906 364.29511176 -272.4999185 356.84882037 -261.16943359 353.05175781 C-258.01517574 352.28583217 -255.43025519 352.31345825 -252.19921875 352.39453125 C-248.44363131 352.11336118 -246.73718028 351.91917416 -244.03491211 349.24121094 C-242.20981211 346.36075979 -240.70514065 343.45860303 -239.25 340.375 C-238.21203894 338.34448867 -237.17298402 336.31453611 -236.1328125 334.28515625 C-235.63910156 333.2885498 -235.14539063 332.29194336 -234.63671875 331.26513672 C-227.76258254 317.83881189 -220.77052021 309.19434007 -206.125 304.3125 C-201.835 304.3125 -197.545 304.3125 -193.125 304.3125 C-193.125 293.7525 -193.125 283.1925 -193.125 272.3125 C-199.395 272.3125 -205.665 272.3125 -212.125 272.3125 C-212.785 273.9625 -213.445 275.6125 -214.125 277.3125 C-219.33908447 286.03113305 -227.15773301 292.50667908 -236.83984375 295.65234375 C-248.81875935 298.0595218 -261.03621572 297.35655611 -271.54296875 290.8046875 C-280.34585629 284.46424924 -286.96161945 276.07819846 -289.125 265.3125 C-290.46304566 252.89531916 -289.40026374 241.92359291 -281.9375 231.5625 C-275.1250775 223.4772682 -266.82006924 217.24945983 -256.05419922 216.08935547 C-243.13082207 215.19295249 -232.42517032 216.78187225 -222.203125 225.3125 C-217.60125095 229.74137126 -213.68886619 234.05703522 -212.125 240.3125 C-205.855 240.3125 -199.585 240.3125 -193.125 240.3125 C-193.125 229.7525 -193.125 219.1925 -193.125 208.3125 C-197.415 208.3125 -201.705 208.3125 -206.125 208.3125 C-218.6634612 204.58081512 -225.60440252 197.84296718 -231.93945312 186.55615234 C-233.35337385 183.88030154 -234.64790478 181.15625688 -235.953125 178.42578125 C-240.46074552 168.01206755 -240.46074552 168.01206755 -248.11474609 160.16455078 C-251.55919978 159.16111302 -254.8276126 159.14587899 -258.390625 159.25 C-266.71973531 159.38939934 -273.22930818 154.0448525 -279.08203125 148.5546875 C-287.93600765 138.83732143 -289.72427202 128.43147672 -289.43359375 115.76953125 C-288.88135976 104.87379422 -283.81676426 96.74603677 -276.05859375 89.33984375 C-265.87546854 80.75978656 -255.10711062 79.19378951 -242.19580078 80.08935547 C-231.42993076 81.24945983 -223.1249225 87.4772682 -216.3125 95.5625 C-208.89765894 105.8570584 -207.68003124 116.94966964 -209.125 129.3125 C-210.37427069 134.5372536 -212.15084332 138.85126499 -215.125 143.3125 C-214.80374084 147.51096398 -213.04326582 150.59345173 -210.96484375 154.19921875 C-210.33642578 155.30201172 -209.70800781 156.40480469 -209.06054688 157.54101562 C-208.40119141 158.68248047 -207.74183594 159.82394531 -207.0625 161 C-205.75388074 163.27183382 -204.45182867 165.54711516 -203.15234375 167.82421875 C-202.57218506 168.82928467 -201.99202637 169.83435059 -201.39428711 170.86987305 C-200.125 173.3125 -200.125 173.3125 -200.125 175.3125 C-197.815 175.6425 -195.505 175.9725 -193.125 176.3125 C-193.14594727 175.72871582 -193.16689453 175.14493164 -193.18847656 174.54345703 C-193.86494245 152.85801586 -193.86494245 152.85801586 -189.125 145.3125 C-188.70089844 144.60222656 -188.27679688 143.89195312 -187.83984375 143.16015625 C-182.81003358 135.63645691 -174.91730898 130.42852493 -166.125 128.3125 C-160.77342051 127.88051178 -155.43424355 127.9327641 -150.0703125 127.97192383 C-148.44353755 127.97277096 -146.81676146 127.97229327 -145.18998718 127.97059631 C-140.79173937 127.96973831 -136.39373879 127.98733239 -131.99554825 128.00831819 C-127.39247147 128.02711756 -122.78938854 128.02883799 -118.1862793 128.03239441 C-109.47770491 128.04170531 -100.76924399 128.06630614 -92.06071949 128.09644288 C-82.14296359 128.13001665 -72.22520218 128.14648038 -62.30740356 128.16152918 C-41.9132058 128.19285655 -21.51911006 128.24559844 -1.125 128.3125 C-1.2099585 120.19229742 -1.30504766 112.0722995 -1.41252708 103.95236683 C-1.46214529 100.18060177 -1.50847345 96.40886015 -1.546875 92.63696289 C-1.58416954 88.98635889 -1.63063842 85.33596953 -1.68306351 81.6855526 C-1.70137613 80.30358391 -1.71656604 78.92156963 -1.72834396 77.5395298 C-1.89096446 59.09059944 -3.81306003 44.00072071 -17.00390625 30.37109375 C-27.53955697 20.5165356 -39.58260993 17.68273939 -53.60546875 18.00390625 C-66.09047129 18.63141107 -75.99189997 24.69002875 -84.4375 33.625 C-93.35867213 44.20424856 -95.97645329 56.28837846 -96.30078125 69.79296875 C-96.32462891 70.72947266 -96.34847656 71.66597656 -96.37304688 72.63085938 C-96.41627367 74.55510678 -96.44738227 76.47966192 -96.46679688 78.40429688 C-96.69034436 85.92692959 -98.10114751 89.43984013 -103.625 94.6875 C-108.79000009 97.08553575 -113.5252288 97.06631535 -119.125 96.3125 C-124.09802371 94.00359614 -126.46166299 91.04297175 -129.125 86.3125 C-129.50944755 83.59688581 -129.68809873 81.30212467 -129.65625 78.59765625 C-129.6600769 77.86485947 -129.66390381 77.13206268 -129.66784668 76.37705994 C-129.67055855 74.82810083 -129.66324809 73.27909537 -129.64648438 71.73022461 C-129.62533886 69.41214762 -129.64616096 67.09726943 -129.671875 64.77929688 C-129.69816829 51.70952405 -127.53457665 39.61268527 -121.3125 27.9375 C-120.96920654 27.27250488 -120.62591309 26.60750977 -120.2722168 25.92236328 C-117.43764668 20.57926057 -114.10247632 15.870956 -110.125 11.3125 C-109.35285156 10.34441406 -108.58070313 9.37632813 -107.78515625 8.37890625 C-99.77117411 -1.22163081 -88.61503866 -7.26593272 -77.125 -11.6875 C-75.45630859 -12.33912109 -75.45630859 -12.33912109 -73.75390625 -13.00390625 C-49.0695884 -21.04522205 -20.46495623 -15.7264261 0 0 Z M-254.5 114.9375 C-256.61206506 118.02436432 -256.73695145 119.6407913 -256.125 123.3125 C-254.625 125.8125 -254.625 125.8125 -252.125 127.3125 C-248.4532913 127.92445145 -246.83686432 127.79956506 -243.75 125.6875 C-241.63793494 122.60063568 -241.51304855 120.9842087 -242.125 117.3125 C-243.625 114.8125 -243.625 114.8125 -246.125 113.3125 C-249.7967087 112.70054855 -251.41313568 112.82543494 -254.5 114.9375 Z M145.5 114.9375 C143.38793494 118.02436432 143.26304855 119.6407913 143.875 123.3125 C145.375 125.8125 145.375 125.8125 147.875 127.3125 C151.5467087 127.92445145 153.16313568 127.79956506 156.25 125.6875 C158.36206506 122.60063568 158.48695145 120.9842087 157.875 117.3125 C156.375 114.8125 156.375 114.8125 153.875 113.3125 C150.2032913 112.70054855 148.58686432 112.82543494 145.5 114.9375 Z M-85.53125 209.375 C-94.95435034 220.83053375 -97.19835139 232.72938377 -96.33642578 247.17822266 C-95.03145572 260.35148856 -86.93898463 270.98108776 -77.125 279.3125 C-71.56719911 283.12914868 -71.56719911 283.12914868 -65.125 284.3125 C-65.14071045 284.87122803 -65.1564209 285.42995605 -65.17260742 286.00561523 C-65.23574924 288.5869699 -65.27423704 291.1681613 -65.3125 293.75 C-65.33763672 294.62849609 -65.36277344 295.50699219 -65.38867188 296.41210938 C-65.45942223 302.80322456 -65.13799496 309.93845203 -60.67236328 314.93920898 C-55.92319011 318.99048273 -52.7291336 319.66849741 -46.6640625 319.58984375 C-42.90039598 319.17873556 -40.90709813 317.8296364 -38.125 315.3125 C-34.05272085 310.13960486 -32.9855994 305.91959368 -33.02734375 299.44921875 C-33.03056641 298.56298828 -33.03378906 297.67675781 -33.03710938 296.76367188 C-33.04548828 295.85166016 -33.05386719 294.93964844 -33.0625 294 C-33.06701172 293.06865234 -33.07152344 292.13730469 -33.07617188 291.17773438 C-33.08790766 288.88925627 -33.10432637 286.60091192 -33.125 284.3125 C-32.03638672 284.15974609 -32.03638672 284.15974609 -30.92578125 284.00390625 C-22.93345346 282.03090483 -15.13885903 274.66051894 -10.125 268.3125 C-2.44781272 255.51718786 -0.03808564 242.4718684 -2.77734375 227.82421875 C-6.7111169 214.80731275 -15.76647299 204.18950165 -27.55078125 197.6015625 C-47.62818368 187.54762805 -70.44450474 193.43428803 -85.53125 209.375 Z M-254.5 250.9375 C-256.61206506 254.02436432 -256.73695145 255.6407913 -256.125 259.3125 C-254.625 261.8125 -254.625 261.8125 -252.125 263.3125 C-248.4532913 263.92445145 -246.83686432 263.79956506 -243.75 261.6875 C-241.63793494 258.60063568 -241.51304855 256.9842087 -242.125 253.3125 C-243.625 250.8125 -243.625 250.8125 -246.125 249.3125 C-249.7967087 248.70054855 -251.41313568 248.82543494 -254.5 250.9375 Z M145.5 250.9375 C143.38793494 254.02436432 143.26304855 255.6407913 143.875 259.3125 C145.375 261.8125 145.375 261.8125 147.875 263.3125 C151.5467087 263.92445145 153.16313568 263.79956506 156.25 261.6875 C158.36206506 258.60063568 158.48695145 256.9842087 157.875 253.3125 C156.375 250.8125 156.375 250.8125 153.875 249.3125 C150.2032913 248.70054855 148.58686432 248.82543494 145.5 250.9375 Z M-254.5 386.9375 C-256.61206506 390.02436432 -256.73695145 391.6407913 -256.125 395.3125 C-254.625 397.8125 -254.625 397.8125 -252.125 399.3125 C-248.4532913 399.92445145 -246.83686432 399.79956506 -243.75 397.6875 C-241.63793494 394.60063568 -241.51304855 392.9842087 -242.125 389.3125 C-243.625 386.8125 -243.625 386.8125 -246.125 385.3125 C-249.7967087 384.70054855 -251.41313568 384.82543494 -254.5 386.9375 Z M145.5 386.9375 C143.38793494 390.02436432 143.26304855 391.6407913 143.875 395.3125 C145.375 397.8125 145.375 397.8125 147.875 399.3125 C151.5467087 399.92445145 153.16313568 399.79956506 156.25 397.6875 C158.36206506 394.60063568 158.48695145 392.9842087 157.875 389.3125 C156.375 386.8125 156.375 386.8125 153.875 385.3125 C150.2032913 384.70054855 148.58686432 384.82543494 145.5 386.9375 Z " fill="#6A4EE1" transform="translate(305.125,47.6875)"/>
<path d="M0 0 C4.8846525 2.26787438 7.73212562 5.1153475 10 10 C10.75381535 15.5997712 10.77303575 20.33499991 8.375 25.5 C3.80134327 30.3143755 0.6912538 32.25156236 -6 32.5 C-12.6912538 32.25156236 -15.80134327 30.3143755 -20.375 25.5 C-22.77303575 20.33499991 -22.75381535 15.5997712 -22 10 C-17.52212837 0.3553534 -9.85292056 -1.32635469 0 0 Z " fill="#6A4EE1" transform="translate(262,272)"/>
</svg>
